<svg width="1354" height="405" viewBox="0 0 1354 405" fill="none" xmlns="http://www.w3.org/2000/svg">
<rect width="34" height="105" transform="matrix(1 0 0 -1 0 105)" fill="black"/>
<rect width="33" height="105" transform="matrix(1 0 0 -1 111 105)" fill="black"/>
<rect width="34" height="105" transform="matrix(1 0 0 -1 219 105)" fill="black"/>
<rect width="33" height="105" transform="matrix(1 0 0 -1 329 105)" fill="black"/>
<rect width="33" height="105" transform="matrix(1 0 0 -1 438 105)" fill="black"/>
<rect width="34" height="105" transform="matrix(1 0 0 -1 548 105)" fill="black"/>
<rect width="33" height="105" transform="matrix(1 0 0 -1 657 105)" fill="black"/>
<rect width="34" height="105" transform="matrix(1 0 0 -1 767 105)" fill="black"/>
<rect width="34" height="105" transform="matrix(1 0 0 -1 876 105)" fill="black"/>
<rect width="33" height="105" transform="matrix(1 0 0 -1 986 105)" fill="black"/>
<rect width="34" height="105" transform="matrix(1 0 0 -1 1094 105)" fill="black"/>
<rect width="33" height="105" transform="matrix(1 0 0 -1 1205 105)" fill="black"/>
<rect width="34" height="105" transform="matrix(1 0 0 -1 55 105)" fill="black"/>
<rect width="34" height="105" transform="matrix(1 0 0 -1 164 105)" fill="black"/>
<rect width="34" height="105" transform="matrix(1 0 0 -1 274 105)" fill="black"/>
<rect width="35" height="105" transform="matrix(1 0 0 -1 382 105)" fill="black"/>
<rect width="33" height="105" transform="matrix(1 0 0 -1 493 105)" fill="black"/>
<rect width="34" height="105" transform="matrix(1 0 0 -1 601 105)" fill="black"/>
<rect width="34" height="105" transform="matrix(1 0 0 -1 712 105)" fill="black"/>
<rect width="33" height="105" transform="matrix(1 0 0 -1 822 105)" fill="black"/>
<rect width="35" height="105" transform="matrix(1 0 0 -1 930 105)" fill="black"/>
<rect width="34" height="105" transform="matrix(1 0 0 -1 1040 105)" fill="black"/>
<rect width="33" height="105" transform="matrix(1 0 0 -1 1150 105)" fill="black"/>
<rect width="34" height="105" transform="matrix(1 0 0 -1 1260 105)" fill="black"/>
<rect width="34" height="105" transform="matrix(1 0 0 -1 1320 105)" fill="black"/>
<rect width="96" height="210" transform="matrix(1 0 0 -1 158 316)" fill="black"/>
<rect width="97" height="210" transform="matrix(1 0 0 -1 473 316)" fill="black"/>
<rect width="96" height="210" transform="matrix(1 0 0 -1 787 316)" fill="black"/>
<rect width="97" height="210" transform="matrix(1 0 0 -1 1102 316)" fill="black"/>
<rect width="97" height="210" transform="matrix(1 0 0 -1 0 316)" fill="black"/>
<rect width="96" height="210" transform="matrix(1 0 0 -1 316 316)" fill="black"/>
<rect width="98" height="210" transform="matrix(1 0 0 -1 628 316)" fill="black"/>
<rect width="96" height="210" transform="matrix(1 0 0 -1 945 316)" fill="black"/>
<rect width="96" height="210" transform="matrix(1 0 0 -1 1258 316)" fill="black"/>
<rect width="15" height="89" transform="matrix(-1 0 0 1 15 316)" fill="black"/>
<rect width="15" height="89" transform="matrix(-1 0 0 1 658 316)" fill="black"/>
<rect width="14" height="89" transform="matrix(-1 0 0 1 336 316)" fill="black"/>
<rect width="13" height="89" transform="matrix(-1 0 0 1 979 316)" fill="black"/>
<rect width="15" height="89" transform="matrix(-1 0 0 1 176 316)" fill="black"/>
<rect width="15" height="89" transform="matrix(-1 0 0 1 820 316)" fill="black"/>
<rect width="15" height="89" transform="matrix(-1 0 0 1 498 316)" fill="black"/>
<rect width="13" height="89" transform="matrix(-1 0 0 1 1140 316)" fill="black"/>
<rect width="14" height="89" transform="matrix(-1 0 0 1 68 316)" fill="black"/>
<rect width="15" height="89" transform="matrix(-1 0 0 1 712 316)" fill="black"/>
<rect width="13" height="89" transform="matrix(-1 0 0 1 389 316)" fill="black"/>
<rect width="14" height="89" transform="matrix(-1 0 0 1 1033 316)" fill="black"/>
<rect width="14" height="89" transform="matrix(-1 0 0 1 229 316)" fill="black"/>
<rect width="14" height="89" transform="matrix(-1 0 0 1 872 316)" fill="black"/>
<rect width="15" height="89" transform="matrix(-1 0 0 1 551 316)" fill="black"/>
<rect width="14" height="89" transform="matrix(-1 0 0 1 1194 316)" fill="black"/>
<rect width="14" height="89" transform="matrix(-1 0 0 1 1299 316)" fill="black"/>
<rect width="14" height="89" transform="matrix(-1 0 0 1 121 316)" fill="black"/>
<rect width="15" height="89" transform="matrix(-1 0 0 1 766 316)" fill="black"/>
<rect width="15" height="89" transform="matrix(-1 0 0 1 444 316)" fill="black"/>
<rect width="14" height="89" transform="matrix(-1 0 0 1 1087 316)" fill="black"/>
<rect width="14" height="89" transform="matrix(-1 0 0 1 282 316)" fill="black"/>
<rect width="15" height="89" transform="matrix(-1 0 0 1 926 316)" fill="black"/>
<rect width="15" height="89" transform="matrix(-1 0 0 1 604 316)" fill="black"/>
<rect width="15" height="89" transform="matrix(-1 0 0 1 1249 316)" fill="black"/>
<rect width="15" height="89" transform="matrix(-1 0 0 1 1354 316)" fill="black"/>
<rect width="15" height="89" transform="matrix(-1 0 0 1 42 316)" fill="black"/>
<rect width="14" height="89" transform="matrix(-1 0 0 1 685 316)" fill="black"/>
<rect width="14" height="89" transform="matrix(-1 0 0 1 364 316)" fill="black"/>
<rect width="14" height="89" transform="matrix(-1 0 0 1 1006 316)" fill="black"/>
<rect width="14" height="89" transform="matrix(-1 0 0 1 202 316)" fill="black"/>
<rect width="15" height="89" transform="matrix(-1 0 0 1 846 316)" fill="black"/>
<rect width="15" height="89" transform="matrix(-1 0 0 1 524 316)" fill="black"/>
<rect width="14" height="89" transform="matrix(-1 0 0 1 1167 316)" fill="black"/>
<rect width="14" height="89" transform="matrix(-1 0 0 1 94 316)" fill="black"/>
<rect width="16" height="89" transform="matrix(-1 0 0 1 739 316)" fill="black"/>
<rect width="15" height="89" transform="matrix(-1 0 0 1 417 316)" fill="black"/>
<rect width="14" height="89" transform="matrix(-1 0 0 1 1060 316)" fill="black"/>
<rect width="14" height="89" transform="matrix(-1 0 0 1 255 316)" fill="black"/>
<rect width="14" height="89" transform="matrix(-1 0 0 1 899 316)" fill="black"/>
<rect width="15" height="89" transform="matrix(-1 0 0 1 578 316)" fill="black"/>
<rect width="14" height="89" transform="matrix(-1 0 0 1 1221 316)" fill="black"/>
<rect width="14" height="89" transform="matrix(-1 0 0 1 1326 316)" fill="black"/>
<rect width="14" height="89" transform="matrix(-1 0 0 1 148 316)" fill="black"/>
<rect width="15" height="89" transform="matrix(-1 0 0 1 792 316)" fill="black"/>
<rect width="15" height="89" transform="matrix(-1 0 0 1 470 316)" fill="black"/>
<rect width="15" height="89" transform="matrix(-1 0 0 1 1115 316)" fill="black"/>
<rect width="15" height="89" transform="matrix(-1 0 0 1 310 316)" fill="black"/>
<rect width="14" height="89" transform="matrix(-1 0 0 1 953 316)" fill="black"/>
<rect width="15" height="89" transform="matrix(-1 0 0 1 632 316)" fill="black"/>
<rect width="15" height="89" transform="matrix(-1 0 0 1 1275 316)" fill="black"/>
</svg>
