<svg width="78" height="78" viewBox="0 0 78 78" fill="none" xmlns="http://www.w3.org/2000/svg">
<g clip-path="url(#clip0_5_158)">
<path d="M9.75 22.75C9.75 21.0261 10.4348 19.3728 11.6538 18.1538C12.8728 16.9348 14.5261 16.25 16.25 16.25H61.75C63.4739 16.25 65.1272 16.9348 66.3462 18.1538C67.5652 19.3728 68.25 21.0261 68.25 22.75V55.25C68.25 56.9739 67.5652 58.6272 66.3462 59.8462C65.1272 61.0652 63.4739 61.75 61.75 61.75H16.25C14.5261 61.75 12.8728 61.0652 11.6538 59.8462C10.4348 58.6272 9.75 56.9739 9.75 55.25V22.75Z" stroke="white" stroke-width="5" stroke-linecap="round" stroke-linejoin="round"/>
<path d="M9.75 22.75L39 42.25L68.25 22.75" stroke="white" stroke-width="5" stroke-linecap="round" stroke-linejoin="round"/>
</g>
<defs>
<clipPath id="clip0_5_158">
<rect width="78" height="78" fill="white"/>
</clipPath>
</defs>
</svg>
