<svg width="403" height="262" viewBox="0 0 403 262" fill="none" xmlns="http://www.w3.org/2000/svg">
<g clip-path="url(#clip0_6_110)">
<path d="M7.5 30C7.5 19.3925 7.5 14.09 10.795 10.795C14.09 7.5 19.395 7.5 30 7.5C40.605 7.5 45.91 7.5 49.205 10.795C52.5 14.09 52.5 19.395 52.5 30C52.5 40.605 52.5 45.91 49.205 49.205C45.91 52.5 40.605 52.5 30 52.5C19.395 52.5 14.09 52.5 10.795 49.205C7.5 45.91 7.5 40.605 7.5 30Z" stroke="white" stroke-width="5" stroke-linecap="round" stroke-linejoin="round"/>
<path d="M32.3675 39.475L30.3175 32.8425M30.3175 32.8425L28.6025 27.2975C27.205 22.7825 26.5075 20.5275 25.2625 20.5275C24.02 20.5275 23.32 22.7825 21.925 27.2975L20.2075 32.8425M30.3175 32.8425H20.2075M18.1575 39.4725L20.2075 32.8425" stroke="white" stroke-width="5" stroke-linecap="round" stroke-linejoin="round"/>
<path d="M39.4725 39.4725V27.6325" stroke="white" stroke-width="5" stroke-linecap="round" stroke-linejoin="round"/>
<path d="M39.4725 21.71V20.5275" stroke="white" stroke-width="5" stroke-linecap="round" stroke-linejoin="round"/>
</g>
<g clip-path="url(#clip1_6_110)">
<path d="M7.5 132C7.5 121.392 7.5 116.09 10.795 112.795C14.09 109.5 19.395 109.5 30 109.5C40.605 109.5 45.91 109.5 49.205 112.795C52.5 116.09 52.5 121.395 52.5 132C52.5 142.605 52.5 147.91 49.205 151.205C45.91 154.5 40.605 154.5 30 154.5C19.395 154.5 14.09 154.5 10.795 151.205C7.5 147.91 7.5 142.605 7.5 132Z" stroke="white" stroke-width="5" stroke-linecap="round" stroke-linejoin="round"/>
<path d="M16.975 141.475V132M16.975 132V125.19C16.975 124.915 16.975 124.778 16.985 124.663C17.095 123.538 17.985 122.648 19.11 122.538C19.225 122.528 19.3625 122.528 19.6375 122.528H22.895C23.5261 122.513 24.1538 122.625 24.7411 122.856C25.3284 123.088 25.8636 123.434 26.315 123.876C26.7665 124.317 27.1253 124.844 27.3702 125.426C27.6151 126.008 27.7413 126.632 27.7413 127.264C27.7413 127.895 27.6151 128.52 27.3702 129.102C27.1253 129.684 26.7665 130.211 26.315 130.652C25.8636 131.093 25.3284 131.44 24.7411 131.671C24.1538 131.903 23.5261 132.015 22.895 132H16.975Z" stroke="white" stroke-width="5" stroke-linecap="round" stroke-linejoin="round"/>
<path d="M42.945 130.157C42.535 128.51 40.6075 127.262 38.29 127.262C35.6725 127.262 33.5525 128.855 33.5525 130.815C33.5525 132.777 35.6725 134.367 38.29 134.367C40.905 134.367 43.0275 135.96 43.0275 137.92C43.0275 139.882 40.905 141.472 38.29 141.472C35.965 141.472 34.03 140.217 33.63 138.56" stroke="white" stroke-width="5" stroke-linecap="round" stroke-linejoin="round"/>
</g>
<g clip-path="url(#clip2_6_110)">
<path d="M7.5 232C7.5 221.392 7.5 216.09 10.795 212.795C14.09 209.5 19.395 209.5 30 209.5C40.605 209.5 45.91 209.5 49.205 212.795C52.5 216.09 52.5 221.395 52.5 232C52.5 242.605 52.5 247.91 49.205 251.205C45.91 254.5 40.605 254.5 30 254.5C19.395 254.5 14.09 254.5 10.795 251.205C7.5 247.91 7.5 242.605 7.5 232Z" stroke="white" stroke-width="5" stroke-linecap="round" stroke-linejoin="round"/>
<path d="M18.1575 241.475V232M18.1575 232V223.88C18.1575 223.042 18.7125 222.527 19.5125 222.527H22.895C23.5261 222.513 24.1538 222.625 24.7411 222.856C25.3284 223.088 25.8636 223.434 26.315 223.876C26.7665 224.317 27.1253 224.844 27.3702 225.426C27.6151 226.008 27.7413 226.632 27.7413 227.264C27.7413 227.895 27.6151 228.52 27.3702 229.102C27.1253 229.684 26.7665 230.211 26.315 230.652C25.8636 231.093 25.3284 231.44 24.7411 231.671C24.1538 231.903 23.5261 232.014 22.895 232H18.1575Z" stroke="white" stroke-width="5" stroke-linecap="round" stroke-linejoin="round"/>
<path d="M34.7375 228.448V233.185M34.7375 233.185V241.473M34.7375 233.185C36.065 231.413 37.3025 229.205 39.4725 228.605C39.8392 228.502 40.2342 228.449 40.6575 228.448" stroke="white" stroke-width="5" stroke-linecap="round" stroke-linejoin="round"/>
</g>
<rect width="45" height="46" transform="translate(102 7)" fill="#D33F14"/>
<rect width="45" height="46" transform="translate(102 109)" fill="#D33F14"/>
<rect width="45" height="46" transform="translate(102 209)" fill="#D33F14"/>
<rect width="45" height="46" transform="translate(166 7)" fill="#D33F14"/>
<rect width="45" height="46" transform="translate(166 109)" fill="#D33F14"/>
<rect width="45" height="46" transform="translate(166 209)" fill="white"/>
<rect width="47" height="46" transform="translate(229 7)" fill="#D33F14"/>
<rect width="47" height="46" transform="translate(229 109)" fill="white"/>
<rect width="47" height="46" transform="translate(229 209)" fill="white"/>
<rect width="45" height="46" transform="translate(294 7)" fill="#D33F14"/>
<rect width="45" height="46" transform="translate(294 109)" fill="white"/>
<rect width="45" height="46" transform="translate(294 209)" fill="white"/>
<rect width="45" height="46" transform="translate(358 7)" fill="white"/>
<rect width="45" height="46" transform="translate(358 109)" fill="white"/>
<rect width="45" height="46" transform="translate(358 209)" fill="white"/>
<defs>
<clipPath id="clip0_6_110">
<rect width="60" height="60" fill="white"/>
</clipPath>
<clipPath id="clip1_6_110">
<rect width="60" height="60" fill="white" transform="translate(0 102)"/>
</clipPath>
<clipPath id="clip2_6_110">
<rect width="60" height="60" fill="white" transform="translate(0 202)"/>
</clipPath>
</defs>
</svg>
