<svg width="506" height="101" viewBox="0 0 506 101" fill="none" xmlns="http://www.w3.org/2000/svg">
<rect width="32" height="101" transform="matrix(1 0 0 -1 53 101)" fill="black"/>
<rect width="33" height="101" transform="matrix(1 0 0 -1 158 101)" fill="black"/>
<rect width="32" height="101" transform="matrix(1 0 0 -1 263 101)" fill="black"/>
<rect width="33" height="101" transform="matrix(1 0 0 -1 368 101)" fill="black"/>
<rect width="32" height="101" transform="matrix(1 0 0 -1 474 101)" fill="black"/>
<rect width="33" height="101" transform="matrix(1 0 0 -1 0 101)" fill="black"/>
<rect width="32" height="101" transform="matrix(1 0 0 -1 105 101)" fill="black"/>
<rect width="34" height="101" transform="matrix(1 0 0 -1 210 101)" fill="black"/>
<rect width="33" height="101" transform="matrix(1 0 0 -1 315 101)" fill="black"/>
<rect width="31" height="101" transform="matrix(1 0 0 -1 422 101)" fill="black"/>
</svg>
